<svg xmlns="http://www.w3.org/2000/svg" width="891.726" height="375.649" viewBox="0 0 891.726 375.649">
  <g id="Group_2" data-name="Group 2" transform="translate(-212.274 -247.742)">
    <g id="planet-saturn-svgrepo-com" transform="translate(394.799 247.742) rotate(60)">
      <g id="Group_1" data-name="Group 1" transform="translate(0 0)">
        <path id="Path_1" data-name="Path 1" d="M308.043,15.694C301.9,5.28,290.527,0,274.244,0c-17.333,0-41.643,6.1-70.4,17.648A99.888,99.888,0,0,0,56.105,104.874c-8.626,7.042-16.454,13.99-23.27,20.672-3.734,3.662-7.2,7.281-10.308,10.756a4.815,4.815,0,0,0,7.181,6.415c2.964-3.318,6.284-6.782,9.868-10.3,5.155-5.052,10.911-10.271,17.18-15.577.05.44.11.879.167,1.318.038.294.071.589.112.882.1.717.206,1.434.319,2.149l.011.073a99.168,99.168,0,0,0,3.428,14.446c-1.582,1.412-3.1,2.8-4.548,4.143-6.152,5.728-26.454,25.384-29.371,37.834a4.814,4.814,0,0,0,3.426,5.745,29.472,29.472,0,0,0,7.535.811c11.286,0,28.566-3.992,48.668-11.245l.053-.02c25.91-9.353,55.334-23.577,85.1-41.138,13.327-7.863,26.241-16.137,38.384-24.592a4.814,4.814,0,0,0-5.5-7.9c-11.946,8.318-24.657,16.46-37.776,24.2-28.093,16.576-55.815,30.095-80.425,39.249a90.133,90.133,0,0,1-19.76-45.059c-.012-.083-.021-.167-.032-.251a92.036,92.036,0,0,1-.793-10.432c0-.012,0-.024,0-.037-.01-.546-.019-1.092-.019-1.64A90.342,90.342,0,0,1,240.021,72.108c-6.385,5.478-13.413,11.1-20.935,16.735a4.814,4.814,0,1,0,5.775,7.7c8.716-6.533,16.8-13.05,24.016-19.371.04-.035.081-.069.12-.106,2.415-2.116,4.716-4.191,6.838-6.168,16.421-15.287,27.4-29.43,29.372-37.833a4.814,4.814,0,0,0-3.427-5.746,29.48,29.48,0,0,0-7.536-.811c-10.714,0-26.832,3.6-45.629,10.166-.145-.154-.294-.3-.44-.455l-.317-.327a100.115,100.115,0,0,0-13.812-11.911c24.7-9.415,45.382-14.362,60.2-14.362,12.634,0,21.217,3.686,25.507,10.959,8.7,14.741-5.221,33.382-14.3,44.379-10.881,13.176-24.081,24.21-37.329,34.905a575.953,575.953,0,0,1-67.884,46.518,576.943,576.943,0,0,1-73.527,36.96c-28.538,11.636-52.355,17.786-68.874,17.786-12.634,0-21.216-3.686-25.506-10.957-4.32-7.324-3.355-16.7,2.871-27.863,1.039-1.863,2.28-3.858,3.685-5.928a4.814,4.814,0,0,0-7.965-5.41c-1.563,2.3-2.954,4.539-4.13,6.648-8.01,14.367-8.938,26.965-2.754,37.446,6.145,10.413,17.517,15.694,33.8,15.694,17.324,0,41.617-6.093,70.358-17.629,2.9,1.586,5.9,3.042,8.934,4.327a100.614,100.614,0,0,0,39,7.859q1.664,0,3.328-.056a4.815,4.815,0,1,0-.324-9.624,90.889,90.889,0,0,1-38.251-7.048c-.3-.127-.6-.265-.9-.4a606.418,606.418,0,0,0,65.145-33.517,604.138,604.138,0,0,0,60.824-40.848,90.376,90.376,0,0,1-63.968,78.078,4.814,4.814,0,1,0,2.762,9.224,99.488,99.488,0,0,0,25.327-11.668,99.837,99.837,0,0,0,45.9-83.578c8.624-7.04,16.451-13.989,23.272-20.673,11.939-11.7,20.7-22.5,26.045-32.08C313.3,38.772,314.227,26.174,308.043,15.694ZM76.738,166.207c-15.741,5.282-29.06,8.232-38.078,8.4,3.405-5.784,10.661-15.152,24.146-27.706q.8-.748,1.643-1.516A99.729,99.729,0,0,0,76.738,166.207ZM273.419,36.154c-3.407,5.785-10.661,15.152-24.147,27.705q-.8.743-1.631,1.506a99.427,99.427,0,0,0-12.3-20.807C251.083,39.277,264.4,36.327,273.419,36.154Z" fill="#fff"/>
      </g>
    </g>
    <text id="COREMOTION" transform="translate(559 541)" fill="#fff" font-size="91" font-family="FiraGO-Regular, FiraGO"><tspan x="0" y="0">COREMOTION</tspan></text>
  </g>
</svg>
